<svg id="Layer_1" data-name="Layer 1" xmlns="http://www.w3.org/2000/svg" viewBox="0 0 658.89 148.47"><defs><style>.cls-1{fill:#b21e42;}</style></defs><path d="M39.39,146H0V28Q0,.1,38.46.1,76,.1,76,24.44q0,16.71-17.46,16.72c-3.29,0-10-1-14.68-11.7-5-11.46-4.46-11-4.46-2.42V55.1H60.2V68.48H39.39Z"/><path d="M351.59,148.46q-10.23,0-14.5-7.06L307.37,87q-4.85-8.73-4.65-13.75a19.2,19.2,0,0,1,1.49-6.69q6.5-11.7,18.57-11.33,10.61.18,15.24,7.24l13.57,23,13.56-23q4.83-6.87,15.24-7.24Q392.65,55,399,66.52a19.24,19.24,0,0,1,1.48,6.69q.38,5.58-4.64,13.75L366.08,141.4q-3.9,7.07-14.49,7.06"/><path d="M448.32,146.05H408.73V72.8q0-18.76,19.7-18.77,19.89,0,19.89,18.77Z"/><path d="M540.73,68.56q-13-13.38-35.3-13.38a72,72,0,0,0-9.28.57V18.8Q496.15,0,476.45,0,456.58,0,456.57,18.8v83q1.11,21,13.38,33.25,13.38,13.35,35.48,13.38,22.32,0,35.3-13.38,12.43-12.26,13.38-33.25Q553.38,80.62,540.73,68.56Zm-24,35.7c-.7,7.74-4.68,12-9.74,12.73a7.29,7.29,0,0,1-3.22,0c-5.07-.74-9-5-9.74-12.73a17.27,17.27,0,0,1,0-4.87c.69-7.74,4.67-12,9.74-12.74a9.17,9.17,0,0,1,3.22,0c5.06.75,9,5,9.74,12.74A17.27,17.27,0,0,1,516.73,104.26Z"/><path class="cls-1" d="M428.52,42.74c-3.13,0-5.34-1.08-6.65-3.24L408.26,14.57q-2.22-4-2.13-6.3a8.73,8.73,0,0,1,.68-3.07c2-3.57,4.82-5.31,8.51-5.19,3.23.06,5.56,1.16,7,3.32l6.22,10.55,6.21-10.55c1.47-2.1,3.81-3.21,7-3.32a9.13,9.13,0,0,1,8.51,5.19,8.73,8.73,0,0,1,.68,3.07q.17,2.55-2.13,6.3L435.15,39.5q-1.78,3.24-6.63,3.24"/><path d="M655.08,110.66l-.13,0a2.35,2.35,0,0,0-.91-.15h-34.3a9.6,9.6,0,0,1-.49,1.36c-1.83,3.7-5.12,5.79-8.51,5.79A9.11,9.11,0,0,1,604,114.3a12.57,12.57,0,0,1-2.82-5.79c-.17-.77-.33-1.57-.41-2.22h48.32q11.49-.37,9.47-12.84-2.6-15-12.46-24.89-13.35-13.38-35.48-13.38T575.32,68.56A40.42,40.42,0,0,0,564.76,85.8a59.11,59.11,0,0,0-1.86,24.53,45.93,45.93,0,0,0,12.42,24.76q13.2,13.35,35.31,13.38t35.48-13.38A43,43,0,0,0,656.52,118C658,114.3,657.5,111.85,655.08,110.66ZM610.74,82.3a9.34,9.34,0,0,1,7.12,3.79,13.34,13.34,0,0,1,2.79,6.59v.23H600.8l.15-.73a13.52,13.52,0,0,1,3.59-7.09A8.8,8.8,0,0,1,610.74,82.3Z"/><path d="M136.32,68.49q-13-13.35-35.5-13.38-22.15,0-35.29,13.38Q53.32,80.58,52.19,101.57a66.8,66.8,0,0,0,.84,7.71Q55.63,125.09,65.56,135a42.48,42.48,0,0,0,8,6.38,45.2,45.2,0,0,0,14.91,5.81c1.23.25,2.5.47,3.78.62h.45q17.1,0,17.43-16.05V129.6a28.55,28.55,0,0,0,.15,2.92V146h39.46V101.57Q148.58,80.59,136.32,68.49Zm-26.23,35.7c-.52,5.66-2.77,9.47-6,11.37a9.82,9.82,0,0,1-3.78,1.36,10.87,10.87,0,0,1-1.61.18,8.72,8.72,0,0,1-1.61-.18c-4.15-.59-7.54-3.53-9-8.77a21.84,21.84,0,0,1-.74-4,19.84,19.84,0,0,1,0-4.87c.71-7.74,4.67-12,9.76-12.73a7.26,7.26,0,0,1,1.61-.15,8.69,8.69,0,0,1,1.61.15c5.06.74,9,5,9.74,12.73a19.84,19.84,0,0,1,0,4.87Z"/><path d="M253.18,54a46.33,46.33,0,0,0-25.44,7.51A46.45,46.45,0,0,0,202.32,54C178.53,54,159,71.45,158,93.34V146H195.8V94.72a6.53,6.53,0,0,1,13-.52,4.51,4.51,0,0,1,0,.52V146h37.87V94.72a6.53,6.53,0,1,1,13,0V146h37.79V93.31C296.45,71.43,277,54,253.18,54Z"/></svg>